<?xml version="1.0" encoding="iso-8859-1"?>
<!-- Generator: Adobe Illustrator 18.0.0, SVG Export Plug-In . SVG Version: 6.00 Build 0)  -->
<!DOCTYPE svg PUBLIC "-//W3C//DTD SVG 1.1//EN" "http://www.w3.org/Graphics/SVG/1.1/DTD/svg11.dtd">
<svg xmlns="http://www.w3.org/2000/svg" xmlns:xlink="http://www.w3.org/1999/xlink" version="1.1" id="Capa_1" x="0px" y="0px" viewBox="0 0 297 297" style="enable-background:new 0 0 297 297;" xml:space="preserve" width="512px" height="512px">
<path d="M291.032,192.401l-29.607-12.675c5.027-14.102,7.774-29.276,7.774-45.084C269.199,60.4,208.828,0,134.624,0  C60.419,0,0.047,60.4,0.047,134.643c0,74.24,60.372,134.64,134.577,134.64c15.794,0,30.956-2.747,45.046-7.772l12.666,29.572  c1.543,3.601,5.081,5.918,8.973,5.918c0.136,0,0.271-0.002,0.408-0.008c4.051-0.169,7.576-2.823,8.856-6.67l19.907-59.771  l59.794-19.91c3.847-1.282,6.502-4.808,6.67-8.859C297.113,197.73,294.76,193.997,291.032,192.401z M194.767,151.191  c0.117-2.251,0.218-4.512,0.287-6.786h54.201c-0.808,9.587-2.804,18.839-5.825,27.618L194.767,151.191z M236.21,80.655  c7.138,13.394,11.707,28.355,13.045,44.224h-54.201c-0.472-15.436-2.047-30.359-4.646-44.224H236.21z M223.089,61.129H185.87  c-1.838-6.53-3.921-12.723-6.261-18.47c-2.619-6.436-5.504-12.185-8.608-17.231C191.543,32.296,209.523,44.813,223.089,61.129z   M107.724,50.021c7.772-19.094,17.829-30.494,26.9-30.494s19.128,11.4,26.899,30.494c1.432,3.518,2.75,7.239,3.977,11.108h-61.752  C104.974,57.26,106.292,53.538,107.724,50.021z M170.524,80.655c2.794,13.66,4.496,28.617,4.998,44.224H93.725  c0.502-15.606,2.205-30.563,4.998-44.224H170.524z M98.246,25.428c-3.104,5.047-5.988,10.796-8.608,17.231  c-2.34,5.747-4.424,11.939-6.262,18.47H46.158C59.725,44.813,77.704,32.296,98.246,25.428z M33.037,80.655H78.84  c-2.601,13.864-4.176,28.788-4.647,44.224H19.991C21.329,109.01,25.899,94.049,33.037,80.655z M33.035,188.627  c-7.137-13.393-11.706-28.354-13.044-44.222h54.201c0.472,15.434,2.047,30.357,4.646,44.222H33.035z M46.156,208.152h37.22  c1.838,6.53,3.922,12.723,6.262,18.471c2.62,6.436,5.505,12.185,8.608,17.232C77.703,236.986,59.724,224.47,46.156,208.152z   M93.725,144.405h35.789l18.94,44.222H98.723C95.93,174.967,94.227,160.012,93.725,144.405z M134.624,249.756  c-9.071,0-19.128-11.4-26.9-30.494c-1.432-3.518-2.75-7.24-3.978-11.109h53.07l4.732,11.047c-0.009,0.02-0.017,0.043-0.025,0.063  C153.752,238.355,143.695,249.756,134.624,249.756z M219.678,213.567c-2.918,0.972-5.207,3.261-6.179,6.178l-13.331,40.027  l-44.595-104.119l104.142,44.582L219.678,213.567z" fill="#FFFFFF"/>
<g>
</g>
<g>
</g>
<g>
</g>
<g>
</g>
<g>
</g>
<g>
</g>
<g>
</g>
<g>
</g>
<g>
</g>
<g>
</g>
<g>
</g>
<g>
</g>
<g>
</g>
<g>
</g>
<g>
</g>
</svg>
