<?xml version="1.0" encoding="iso-8859-1"?>
<!-- Generator: Adobe Illustrator 17.1.0, SVG Export Plug-In . SVG Version: 6.00 Build 0)  -->
<!DOCTYPE svg PUBLIC "-//W3C//DTD SVG 1.1//EN" "http://www.w3.org/Graphics/SVG/1.1/DTD/svg11.dtd">
<svg xmlns="http://www.w3.org/2000/svg" xmlns:xlink="http://www.w3.org/1999/xlink" version="1.1" id="Capa_1" x="0px" y="0px" viewBox="0 0 405.586 405.586" style="enable-background:new 0 0 405.586 405.586;" xml:space="preserve" width="512px" height="512px">
<path d="M371.583,134.32v174.999c0,18.504-15.054,33.558-33.559,33.558H33.559C15.054,342.877,0,327.823,0,309.319V93.796  c0-18.504,15.054-33.559,33.559-33.559h262.405c4.971,0,9,4.029,9,9s-4.029,9-9,9H33.559C24.979,78.237,18,85.217,18,93.796v215.523  c0,8.579,6.979,15.558,15.559,15.558h304.465c8.579,0,15.559-6.979,15.559-15.558V134.32c0-4.971,4.029-9,9-9  S371.583,129.349,371.583,134.32z M221.252,362.455H150.33c-4.971,0-9,4.029-9,9s4.029,9,9,9h70.922c4.971,0,9-4.029,9-9  S226.223,362.455,221.252,362.455z M346.106,25.131c-4.971,0-9,4.029-9,9s4.029,9,9,9c22.872,0,41.479,18.608,41.479,41.48  c0,4.971,4.029,9,9,9s9-4.029,9-9C405.586,51.814,378.904,25.131,346.106,25.131z M327.188,113.57h0.033  c4.971,0,8.984-4.029,8.984-9s-4.046-9-9.017-9s-9,4.029-9,9S322.217,113.57,327.188,113.57z M192.24,254.723  c-1.694,1.739-4.019,2.721-6.447,2.721s-4.753-0.981-6.448-2.721c-3.92-4.024-8.304-8.103-12.946-12.421  c-19.712-18.338-42.055-39.123-42.055-68.425c0-33.882,27.566-61.448,61.449-61.448c33.881,0,61.446,27.565,61.446,61.448  c0,29.301-22.34,50.084-42.051,68.422C200.545,246.618,196.16,250.697,192.24,254.723z M192.927,229.12  c17.852-16.608,36.312-33.782,36.312-55.243c0-23.957-19.49-43.448-43.446-43.448c-23.958,0-43.449,19.491-43.449,43.448  c0,21.462,18.461,38.637,36.315,55.246c2.449,2.278,4.829,4.492,7.133,6.689C188.097,233.613,190.478,231.398,192.927,229.12z   M338.024,60.237c-4.971,0-9,4.029-9,9s4.029,9,9,9c8.579,0,15.559,6.98,15.559,15.559c0,4.971,4.029,9,9,9s9-4.029,9-9  C371.583,75.292,356.528,60.237,338.024,60.237z M185.775,272.683c-4.971,0-9,4.029-9,9s4.029,9,9,9h0.033  c4.971,0,8.984-4.029,8.984-9S190.746,272.683,185.775,272.683z" fill="#FFFFFF"/>
<g>
</g>
<g>
</g>
<g>
</g>
<g>
</g>
<g>
</g>
<g>
</g>
<g>
</g>
<g>
</g>
<g>
</g>
<g>
</g>
<g>
</g>
<g>
</g>
<g>
</g>
<g>
</g>
<g>
</g>
</svg>
