<?xml version="1.0" encoding="iso-8859-1"?>
<!-- Generator: Adobe Illustrator 17.1.0, SVG Export Plug-In . SVG Version: 6.00 Build 0)  -->
<!DOCTYPE svg PUBLIC "-//W3C//DTD SVG 1.1//EN" "http://www.w3.org/Graphics/SVG/1.1/DTD/svg11.dtd">
<svg xmlns="http://www.w3.org/2000/svg" xmlns:xlink="http://www.w3.org/1999/xlink" version="1.1" id="Capa_1" x="0px" y="0px" viewBox="0 0 405.659 405.659" style="enable-background:new 0 0 405.659 405.659;" xml:space="preserve" width="512px" height="512px">
<path d="M331.033,299.707c0,4.971-4.029,9-9,9s-9.015-4.029-9.015-9s4.014-9,8.984-9h0.031  C327.003,290.707,331.033,294.736,331.033,299.707z M83.661,308.707c4.971,0,9-4.029,9-9s-4.029-9-9-9h-0.033  c-4.971,0-8.984,4.029-8.984,9S78.69,308.707,83.661,308.707z M77.068,169.612H57.514c-4.971,0-9,4.029-9,9s4.029,9,9,9h19.554  c4.971,0,9-4.029,9-9S82.039,169.612,77.068,169.612z M77.068,202.134H57.514c-4.971,0-9,4.029-9,9s4.029,9,9,9h19.554  c4.971,0,9-4.029,9-9S82.039,202.134,77.068,202.134z M405.601,249.475l-0.036,7.896c-0.025,5.366-0.054,11.478-0.054,18.954  c0,14.555-11.166,27.069-26.565,31.057c-3.763,28.057-27.858,49.764-56.929,49.764c-31.671,0-57.437-25.767-57.437-57.439  c0-31.671,25.766-57.438,57.437-57.438c27.847,0,51.129,19.92,56.347,46.257c5.446-2.586,9.146-7.183,9.146-12.201  c0-7.51,0.029-13.649,0.054-19.039l0.036-7.894c0.049-10.726,0.117-25.416-0.038-32.311c-0.049-2.183-0.111-4.205-0.197-6.091  H165.237c-24.436,0-33.425-21.789-36.379-28.949c-1.896-4.595,0.292-9.857,4.887-11.752c4.594-1.893,9.857,0.292,11.752,4.887  c5.151,12.487,11.055,17.814,19.74,17.814h218.935c-3.772-8.907-11.867-16.079-29.652-31.836  c-3.582-3.173-7.515-6.658-11.835-10.535c-3.105-2.786-6.224-5.766-9.241-8.647c-4.478-4.278-9.109-8.703-13.982-12.784  c-4.207-3.524-8.189-6.877-11.977-10.066c-47.996-40.414-62.481-52.61-104.729-52.61H37.06C26.728,66.513,18,73.099,18,80.895  v195.431c0,1.671,0.397,3.315,1.18,4.886c1.569,3.151,4.47,5.735,8.1,7.407c5.182-26.383,28.484-46.35,56.362-46.35  c28.611,0,52.404,21.028,56.737,48.438h96.295c4.971,0,9,4.029,9,9s-4.029,9-9,9h-96.295c-4.333,27.411-28.126,48.439-56.737,48.439  c-29.051,0-53.133-21.679-56.918-49.711c-10.474-2.634-19.175-9.201-23.655-18.198C1.033,285.152,0,280.807,0,276.326V80.895  c0-17.855,16.625-32.382,37.06-32.382h165.698c48.816,0,67.197,15.477,116.323,56.841c3.776,3.179,7.747,6.522,11.94,10.036  c5.324,4.458,10.171,9.089,14.859,13.568c3.05,2.914,5.931,5.666,8.827,8.265c4.29,3.85,8.195,7.31,11.75,10.459  c30.953,27.425,38.308,33.94,39.101,68.994C405.719,223.816,405.651,238.646,405.601,249.475z M44.206,299.707  c0,21.747,17.691,39.439,39.436,39.439c21.748,0,39.441-17.692,39.441-39.439c0-21.746-17.693-39.438-39.441-39.438  c-21.713,0-39.384,17.64-39.436,39.342C44.206,299.642,44.206,299.674,44.206,299.707L44.206,299.707z M361.457,299.83  c-0.003-0.12-0.003-0.239,0-0.357c-0.127-21.638-17.771-39.204-39.439-39.204c-21.746,0-39.437,17.692-39.437,39.438  c0,21.747,17.691,39.439,39.437,39.439C343.723,339.146,361.39,321.521,361.457,299.83z" fill="#FFFFFF"/>
<g>
</g>
<g>
</g>
<g>
</g>
<g>
</g>
<g>
</g>
<g>
</g>
<g>
</g>
<g>
</g>
<g>
</g>
<g>
</g>
<g>
</g>
<g>
</g>
<g>
</g>
<g>
</g>
<g>
</g>
</svg>
