<?xml version="1.0" encoding="iso-8859-1"?>
<!-- Generator: Adobe Illustrator 17.1.0, SVG Export Plug-In . SVG Version: 6.00 Build 0)  -->
<!DOCTYPE svg PUBLIC "-//W3C//DTD SVG 1.1//EN" "http://www.w3.org/Graphics/SVG/1.1/DTD/svg11.dtd">
<svg xmlns="http://www.w3.org/2000/svg" xmlns:xlink="http://www.w3.org/1999/xlink" version="1.1" id="Capa_1" x="0px" y="0px" viewBox="0 0 373.678 373.678" style="enable-background:new 0 0 373.678 373.678;" xml:space="preserve" width="512px" height="512px">
<path d="M115.717,175.626H75.269c-0.152,0.004-0.309,0.004-0.461,0H34.362c-0.152,0.004-0.309,0.004-0.461,0h-15.36  c-4.971,0-9-4.029-9-9s4.029-9,9-9h6.591v-46.972c0-4.971,4.029-9,9-9s9,4.029,9,9v46.972h22.906V38.282c0-4.971,4.029-9,9-9  s9,4.029,9,9v119.344h22.909V85.745c0-4.971,4.029-9,9-9s9,4.029,9,9v71.881h6.595c4.971,0,9,4.029,9,9s-4.029,9-9,9h-15.364  c-0.076,0.002-0.153,0.003-0.23,0.003S115.793,175.628,115.717,175.626z M54.829,272.107H34.332c-4.971,0-9,4.029-9,9s4.029,9,9,9  h20.497c4.971,0,9-4.029,9-9S59.8,272.107,54.829,272.107z M133.193,227.615c0,4.971,4.029,9,9,9h10.125c4.971,0,9-4.029,9-9  s-4.029-9-9-9h-10.125C137.223,218.615,133.193,222.645,133.193,227.615z M54.829,239.782H9c-4.971,0-9,4.029-9,9s4.029,9,9,9  h45.829c4.971,0,9-4.029,9-9S59.8,239.782,54.829,239.782z M313.135,292.94h-0.023c-4.971,0-8.988,4.029-8.988,9s4.041,9,9.012,9  s9-4.029,9-9S318.105,292.94,313.135,292.94z M373.636,267.076l-0.027,6.079c-0.017,3.595-0.036,7.681-0.036,12.635  c0,10.762-7.74,20.081-18.651,23.625c-3.541,19.859-20.938,34.98-41.802,34.98c-23.409,0-42.453-19.045-42.453-42.455  s19.044-42.456,42.453-42.456c19.15,0,35.38,12.741,40.655,30.191c1.127-1.144,1.798-2.492,1.798-3.886  c0-4.987,0.02-9.101,0.036-12.72l0.028-6.08c0.034-7.33,0.082-17.368-0.026-22.05c-0.075-3.29-0.163-5.988-0.395-8.323H216.76  c-3.23,0-10.795,0-33.942-22.876c-7.053-6.97-21.072-21.802-23.649-28.05c-1.896-4.595,0.292-9.856,4.887-11.752  c4.527-1.868,9.696,0.225,11.663,4.678c1.224,2.193,8.542,11.172,19.149,21.724c13.359,13.29,20.458,17.593,22.393,18.276h127.841  c-2.896-2.776-6.609-6.066-11.382-10.294c-2.477-2.194-5.196-4.604-8.183-7.284c-2.173-1.951-4.338-4.019-6.431-6.019  c-3.066-2.93-6.237-5.959-9.536-8.725c-2.907-2.435-5.662-4.754-8.282-6.96c-33.397-28.119-42.373-35.677-70.537-35.677h-75.437  c-4.971,0-9-4.029-9-9s4.029-9,9-9h75.437c34.732,0,48.607,11.683,82.131,39.907c2.608,2.196,5.352,4.506,8.25,6.934  c3.749,3.144,7.135,6.377,10.408,9.505c2.087,1.993,4.058,3.876,6.021,5.64c2.952,2.649,5.644,5.034,8.095,7.205  c21.576,19.114,27.375,24.252,27.95,49.678C373.72,249.454,373.674,259.225,373.636,267.076z M337.58,301.847  c-0.051-13.441-11.004-24.362-24.461-24.362c-13.483,0-24.453,10.971-24.453,24.456c0,13.484,10.97,24.455,24.453,24.455  c13.482,0,24.451-10.96,24.461-24.438C337.58,301.921,337.58,301.884,337.58,301.847z M148.491,292.94h-0.022  c-4.971,0-8.988,4.029-8.988,9s4.04,9,9.011,9s9-4.029,9-9S153.462,292.94,148.491,292.94z M250.94,301.939c0,4.971-4.029,9-9,9  h-51.964c-4.138,19.103-21.172,33.457-41.496,33.457c-20.843,0-38.227-15.098-41.789-34.93c-7.215-2.285-13.163-7.1-16.356-13.521  c-1.6-3.211-2.412-6.629-2.412-10.154v-83.823c0-4.971,4.029-9,9-9s9,4.029,9,9v83.823c0,0.715,0.177,1.432,0.526,2.133  c0.306,0.616,0.763,1.241,1.356,1.831c5.25-17.49,21.498-30.27,40.675-30.27c20.322,0,37.355,14.353,41.496,33.454h51.964  C246.911,292.939,250.94,296.968,250.94,301.939z M172.937,301.94c0-13.485-10.971-24.456-24.456-24.456  c-13.396,0-24.313,10.826-24.455,24.189c0.003,0.155,0.003,0.311-0.001,0.468c0.107,13.393,11.037,24.254,24.456,24.254  C161.966,326.396,172.937,315.425,172.937,301.94z" fill="#FFFFFF"/>
<g>
</g>
<g>
</g>
<g>
</g>
<g>
</g>
<g>
</g>
<g>
</g>
<g>
</g>
<g>
</g>
<g>
</g>
<g>
</g>
<g>
</g>
<g>
</g>
<g>
</g>
<g>
</g>
<g>
</g>
</svg>
