<?xml version="1.0" encoding="iso-8859-1"?>
<!-- Generator: Adobe Illustrator 19.0.0, SVG Export Plug-In . SVG Version: 6.00 Build 0)  -->
<svg xmlns="http://www.w3.org/2000/svg" xmlns:xlink="http://www.w3.org/1999/xlink" version="1.1" id="Layer_1" x="0px" y="0px" viewBox="0 0 512 512" style="enable-background:new 0 0 512 512;" xml:space="preserve" width="512px" height="512px">
<g>
	<g>
		<path d="M449.984,33.031H62c-37.084,0-62,26.375-62,65.632v222.4c0,37.663,27.14,63.968,66,63.968h241.898l89.202,89.247    c3.061,3.063,7.154,4.69,11.32,4.69c0.125,0,0.25-0.002,0.375-0.006c8.671-0.19,15.641-7.279,15.641-15.996    c0-0.275-0.007-0.549-0.021-0.82l-0.065-77.115H450c37.664,0,62-24.72,62-62.975V98.664C512,59.406,487.078,33.031,449.984,33.031    z M480,322.055c0,20.844-9.813,30.976-30,30.976h-41.665c-4.246,0-8.317,1.687-11.318,4.691    c-3.001,3.003-4.686,7.076-4.682,11.322l0.047,55.247l-66.538-66.571c-3.001-3.002-7.071-4.689-11.316-4.689H66    c-20.972,0-34-12.249-34-31.968v-222.4c0-12.561,3.897-33.632,30-33.632h387.984c26.117,0,30.016,21.071,30.016,33.632V322.055z" fill="#FFFFFF"/>
	</g>
</g>
<g>
	<g>
		<path d="M263.6,156.967c-26.741,0-48.496,21.755-48.496,48.496c0,26.741,21.755,48.496,48.496,48.496    c26.741,0,48.496-21.755,48.496-48.496C312.096,178.722,290.341,156.967,263.6,156.967z M263.6,221.959    c-9.096,0-16.496-7.4-16.496-16.496s7.4-16.496,16.496-16.496c9.095,0,16.496,7.4,16.496,16.496S272.696,221.959,263.6,221.959z" fill="#FFFFFF"/>
	</g>
</g>
<g>
	<g>
		<path d="M135.52,156.904c-26.741,0-48.496,21.755-48.496,48.496c0,26.741,21.755,48.496,48.496,48.496    c26.741,0,48.496-21.755,48.496-48.496C184.016,178.659,162.261,156.904,135.52,156.904z M135.52,221.896    c-9.096,0-16.496-7.4-16.496-16.496s7.4-16.496,16.496-16.496s16.496,7.4,16.496,16.496S144.616,221.896,135.52,221.896z" fill="#FFFFFF"/>
	</g>
</g>
<g>
	<g>
		<path d="M391.776,156.904c-26.741,0-48.496,21.755-48.496,48.496c0,26.741,21.755,48.496,48.496,48.496    c26.742,0,48.496-21.755,48.496-48.496C440.272,178.659,418.517,156.904,391.776,156.904z M391.776,221.896    c-9.096,0-16.496-7.4-16.496-16.496s7.4-16.496,16.496-16.496s16.496,7.4,16.496,16.496S400.872,221.896,391.776,221.896z" fill="#FFFFFF"/>
	</g>
</g>
<g>
</g>
<g>
</g>
<g>
</g>
<g>
</g>
<g>
</g>
<g>
</g>
<g>
</g>
<g>
</g>
<g>
</g>
<g>
</g>
<g>
</g>
<g>
</g>
<g>
</g>
<g>
</g>
<g>
</g>
</svg>
