<?xml version="1.0" encoding="iso-8859-1"?>
<!-- Generator: Adobe Illustrator 16.0.0, SVG Export Plug-In . SVG Version: 6.00 Build 0)  -->
<!DOCTYPE svg PUBLIC "-//W3C//DTD SVG 1.1//EN" "http://www.w3.org/Graphics/SVG/1.1/DTD/svg11.dtd">
<svg xmlns="http://www.w3.org/2000/svg" xmlns:xlink="http://www.w3.org/1999/xlink" version="1.1" id="Capa_1" x="0px" y="0px" width="512px" height="512px" viewBox="0 0 45.598 45.598" style="enable-background:new 0 0 45.598 45.598;" xml:space="preserve">
<g>
	<g>
		<path d="M21.303,1.325c0-0.714-0.623-1.324-1.337-1.324h-4.5c-0.65,0-1.199,0.496-1.283,1.14l-1.789,13.735h8.909V1.325z" fill="#FFFFFF"/>
		<path d="M8.581,44.094c-0.048,0.369,0.065,0.762,0.311,1.043c0.246,0.278,0.6,0.461,0.972,0.461h10.102    c0.714,0,1.337-0.61,1.337-1.324V23.766H11.231L8.581,44.094z" fill="#FFFFFF"/>
		<path d="M31.423,1.14C31.338,0.496,30.789,0,30.14,0h-4.5c-0.714,0-1.346,0.61-1.346,1.324v13.552h8.917L31.423,1.14z" fill="#FFFFFF"/>
		<path d="M34.375,23.766H24.294v20.506c0,0.714,0.631,1.324,1.346,1.324h10.102c0.373,0,0.727-0.183,0.973-0.461    c0.246-0.281,0.359-0.672,0.311-1.043L34.375,23.766z" fill="#FFFFFF"/>
		<path d="M38.879,16.901H6.727c-1.814,0-3.293,1.43-3.293,3.244v4.33c0,0.715,0.587,1.316,1.302,1.316h2.362    c0.714,0,1.266-0.602,1.266-1.316v-1.373c0-0.713,0.607-1.271,1.321-1.271h26.238c0.714,0,1.313,0.557,1.313,1.271v1.373    c0,0.715,0.559,1.316,1.273,1.316h2.361c0.715,0,1.293-0.602,1.293-1.316v-4.33C42.162,18.33,40.692,16.901,38.879,16.901z" fill="#FFFFFF"/>
	</g>
</g>
<g>
</g>
<g>
</g>
<g>
</g>
<g>
</g>
<g>
</g>
<g>
</g>
<g>
</g>
<g>
</g>
<g>
</g>
<g>
</g>
<g>
</g>
<g>
</g>
<g>
</g>
<g>
</g>
<g>
</g>
</svg>
