<?xml version="1.0" encoding="iso-8859-1"?>
<!-- Generator: Adobe Illustrator 19.0.0, SVG Export Plug-In . SVG Version: 6.00 Build 0)  -->
<svg xmlns="http://www.w3.org/2000/svg" xmlns:xlink="http://www.w3.org/1999/xlink" version="1.1" id="Layer_1" x="0px" y="0px" viewBox="0 0 171.5 171.5" style="enable-background:new 0 0 171.5 171.5;" xml:space="preserve" width="512px" height="512px">
<g>
	<g>
		<path d="M162.675,167.272L139.745,59.5h16.005v29.75h7V56c0-1.934-1.566-3.5-3.5-3.5h-20.995l-10.58-49.728    C127.33,1.155,125.901,0,124.25,0h-31.5c-1.934,0-3.5,1.566-3.5,3.5v49h-7v-49c0-1.934-1.566-3.5-3.5-3.5h-31.5    c-1.651,0-3.08,1.155-3.425,2.772L33.245,52.5H12.25c-1.934,0-3.5,1.566-3.5,3.5v33.25h7V59.5h16.006L8.825,167.272    c-0.219,1.032,0.041,2.109,0.704,2.929c0.666,0.82,1.665,1.299,2.721,1.299h66.5c1.934,0,3.5-1.566,3.5-3.5V59.5h7V168    c0,1.934,1.566,3.5,3.5,3.5h66.5c1.056,0,2.054-0.478,2.721-1.299C162.634,169.381,162.894,168.304,162.675,167.272z M75.25,164.5    H16.574l22.34-105H75.25V164.5z M75.25,52.5H40.403L50.084,7H75.25V52.5z M96.25,7h25.166l9.681,45.5H96.25V7z M96.25,164.5v-105    h36.336l22.34,105H96.25z" fill="#FFFFFF"/>
	</g>
</g>
<g>
</g>
<g>
</g>
<g>
</g>
<g>
</g>
<g>
</g>
<g>
</g>
<g>
</g>
<g>
</g>
<g>
</g>
<g>
</g>
<g>
</g>
<g>
</g>
<g>
</g>
<g>
</g>
<g>
</g>
</svg>
