<?xml version="1.0" encoding="utf-8"?>
<!-- Generator: Adobe Illustrator 21.1.0, SVG Export Plug-In . SVG Version: 6.00 Build 0)  -->
<svg version="1.1" id="Слой_1" xmlns="http://www.w3.org/2000/svg" xmlns:xlink="http://www.w3.org/1999/xlink" x="0px" y="0px"
	 viewBox="0 0 100 125" style="enable-background:new 0 0 100 125;" xml:space="preserve">
<style type="text/css">
	.st0{fill:#FFFFFF;}
</style>
<g>
	<path class="st0" d="M73.6,44.3h-5.7l-2.1-3.9c-1.9-3.7-5.7-6-9.9-6H27.4c-4.8,0-8.8,3.9-8.8,8.8v2.1V51c0,3.9,3,7.2,6.8,7.6v0.1
		c0,3.4,2.8,6.2,6.2,6.2s6.2-2.8,6.2-6.2l0,0h22.8l0,0c0,3.4,2.8,6.2,6.2,6.2c3.4,0,6.2-2.8,6.2-6.2l0,0h0.5c4,0,7.2-3.2,7.2-7.2
		S77.5,44.3,73.6,44.3z M64.1,41.4l1.6,3h-15v-7.9h5.2C59.3,36.5,62.5,38.4,64.1,41.4z M33.1,44.3v-7.9h15.5v7.9H33.1z M20.6,43.3
		c0-3.7,3-6.8,6.8-6.8h3.7v7.9H20.6V43.3z M31.6,62.9c-2.3,0-4.2-1.9-4.2-4.2s1.9-4.2,4.2-4.2s4.2,1.9,4.2,4.2S33.9,62.9,31.6,62.9z
		 M66.8,62.9c-2.3,0-4.2-1.9-4.2-4.2s1.9-4.2,4.2-4.2s4.2,1.9,4.2,4.2S69.1,62.9,66.8,62.9z M73.6,56.7h-0.9
		c-0.8-2.4-3.1-4.2-5.9-4.2s-5,1.8-5.9,4.2H37.5c-0.8-2.4-3.1-4.2-5.9-4.2c-2.7,0-5,1.7-5.9,4.2c-2.9-0.3-5.1-2.7-5.1-5.7v-4.7h46.6
		h6.3c2.9,0,5.2,2.3,5.2,5.2S76.4,56.7,73.6,56.7z"/>
	<path class="st0" d="M55.2,48.7h-4.5c-0.6,0-1,0.4-1,1s0.4,1,1,1h4.5c0.6,0,1-0.4,1-1S55.8,48.7,55.2,48.7z"/>
	<path class="st0" d="M42.1,48.7h-4.5c-0.6,0-1,0.4-1,1s0.4,1,1,1h4.5c0.6,0,1-0.4,1-1S42.6,48.7,42.1,48.7z"/>
</g>
</svg>
