<svg xmlns="http://www.w3.org/2000/svg" xmlns:xlink="http://www.w3.org/1999/xlink" width="11" height="9" viewBox="0 0 11 9"><defs><path id="a" d="M728.91 630.5l2.63 2.62a1 1 0 1 1-1.42 1.41l-3.66-3.65c-.16-.17-.16-.28-.07-.38-.09-.1-.09-.22.07-.38l3.66-3.66a1 1 0 0 1 1.41 1.42zm-5 0l2.63 2.62a1 1 0 1 1-1.42 1.41l-3.66-3.65c-.16-.17-.16-.28-.07-.38-.09-.1-.09-.22.07-.38l3.66-3.66a1 1 0 0 1 1.41 1.42z"/></defs><desc>Generated with Avocode.</desc><g opacity=".4" transform="translate(-721 -626)"><use fill="#fff" xlink:href="#a"/></g></svg>