<svg xmlns="http://www.w3.org/2000/svg" xmlns:xlink="http://www.w3.org/1999/xlink" width="10" height="9" viewBox="0 0 10 9"><defs><path id="a" d="M838.66 630.52l-2.38-2.73a1.15 1.15 0 0 1 0-1.47c.35-.4.93-.4 1.29 0l3.32 3.8c.15.17.14.29.07.4.07.1.08.22-.07.39l-3.32 3.8c-.36.4-.94.4-1.29 0a1.15 1.15 0 0 1 0-1.47zm5 0l-2.38-2.73a1.15 1.15 0 0 1 0-1.47c.35-.4.93-.4 1.29 0l3.32 3.8c.15.17.14.29.07.4.07.1.08.22-.07.39l-3.32 3.8c-.36.4-.94.4-1.29 0a1.15 1.15 0 0 1 0-1.47z"/></defs><desc>Generated with Avocode.</desc><g opacity=".4" transform="translate(-836 -626)"><use fill="#fff" xlink:href="#a"/></g></svg>